# xmcd CD database file
#
# Track frame offsets:
#	150
#	24632
#	54717
#	73057
#	92565
#	125135
#	146487
#	168100
#
# Disc length: 2603 seconds
#
# Revision: 0
# Processed by: cddbd v1.4PL0 Copyright (c) Steve Scherf et al.
# Submitted via: CDex 1.50Beta5
#
DISCID=6f0a2908
DTITLE=Woody Herman - Brand New
DYEAR=1971
DGENRE=Jazz
TTITLE0=Sidewalk Stanley
TTITLE1=After Hours
TTITLE2=Since I Fell For You
TTITLE3=Proud Mary
TTITLE4=Hitch Hike On The Possum Trot Line
TTITLE5=Love In Silent Amber
TTITLE6=I Almost Lost My Mind
TTITLE7=Adam's Apple
EXTD=YEAR: 1971
EXTT0=
EXTT1=
EXTT2=
EXTT3=
EXTT4=
EXTT5=
EXTT6=
EXTT7=
PLAYORDER=
